<svg xmlns="http://www.w3.org/2000/svg" width="2000" height="1333" viewBox="0 0 2000 1333" version="1.1"><path d="M 1005.022 235.987 C 1004.325 236.417, 982.194 236.554, 955.842 236.291 C 927.267 236.006, 907.440 236.186, 906.715 236.737 C 906.006 237.276, 876.349 237.772, 835.562 237.927 C 797.096 238.073, 764.599 238.582, 763.345 239.059 C 762.092 239.535, 749.689 239.781, 735.783 239.605 C 721.849 239.429, 714.764 239.583, 720 239.949 C 725.225 240.314, 711.050 240.615, 688.500 240.617 C 665.950 240.620, 651.550 240.361, 656.500 240.042 C 668.265 239.283, 622.749 238.715, 557.500 238.806 C 486.673 238.905, 460.816 239.236, 466 239.978 C 468.475 240.332, 462.400 240.447, 452.500 240.234 C 440.318 239.971, 434.964 240.169, 435.934 240.846 C 436.905 241.523, 433.276 241.665, 424.684 241.287 C 417.200 240.958, 412 241.107, 412 241.652 C 412 242.159, 411.090 242.643, 409.978 242.727 C 408.745 242.820, 408.220 242.453, 408.633 241.785 C 409.069 241.080, 408.840 240.981, 407.988 241.507 C 407.262 241.956, 402.580 242.301, 397.584 242.274 C 391.849 242.243, 389.790 242.470, 392 242.892 C 393.925 243.259, 377.725 243.575, 356 243.595 C 334.275 243.614, 319.200 243.303, 322.500 242.902 C 325.831 242.497, 317.825 242.298, 304.500 242.453 C 290.517 242.616, 282.587 242.408, 285.500 241.953 C 288.726 241.450, 285.354 241.292, 276 241.508 C 266.456 241.729, 262.696 241.547, 265 240.977 C 267.362 240.393, 264.436 240.220, 256 240.447 C 249.125 240.633, 245.300 240.468, 247.500 240.083 C 249.700 239.697, 224.197 239.408, 190.826 239.441 L 130.152 239.500 129.576 242.375 C 128.460 247.945, 129.036 343.273, 130.277 358.500 C 131.169 369.434, 131.500 414.024, 131.500 523 C 131.501 742.891, 131.809 788.597, 133.301 789.835 C 134.058 790.463, 146.573 791.089, 165.379 791.440 C 182.340 791.757, 197.293 792.286, 198.608 792.617 C 201.355 793.306, 201.704 795.171, 199.438 797.051 C 198.579 797.764, 196.216 800.856, 194.188 803.922 C 192.160 806.989, 188.304 811.841, 185.619 814.706 C 174.698 826.360, 169.867 838.503, 169.767 854.548 C 169.677 869.045, 173.822 879.714, 182.933 888.437 L 186 891.374 186 904.753 C 186 918.413, 186.909 922.632, 189.629 921.589 C 190.458 921.271, 190.836 921.456, 190.493 922.011 C 190.157 922.555, 190.379 923, 190.987 923 C 191.595 923, 195.559 924.676, 199.796 926.725 C 208.512 930.940, 210.151 931.612, 208 930.091 C 207.061 929.428, 206.949 929.025, 207.700 929.015 C 208.360 929.007, 209.260 929.641, 209.700 930.425 C 210.140 931.209, 215.900 934.190, 222.500 937.050 C 229.100 939.910, 235.222 942.880, 236.105 943.649 C 236.988 944.419, 238.451 944.764, 239.355 944.417 C 240.260 944.070, 241 944.247, 241 944.810 C 241 945.373, 240.438 946.021, 239.750 946.251 C 238.800 946.568, 238.500 952.041, 238.500 969.084 L 238.500 991.500 241.792 1001.500 C 250.483 1027.904, 265.910 1051.090, 285 1066.438 C 309.644 1086.252, 328.723 1093.548, 362.768 1096.177 C 379.746 1097.487, 390.455 1096.629, 404 1092.874 C 413.447 1090.254, 413.569 1090.206, 425.031 1084.555 C 434.437 1079.917, 448.671 1070.409, 455.165 1064.428 C 478.702 1042.746, 493.486 1017.647, 500.475 987.500 C 502.628 978.215, 502.742 954.871, 500.676 946.254 C 499.853 942.818, 499.480 939.821, 499.848 939.594 C 500.216 939.366, 502.313 939.500, 504.509 939.891 C 506.704 940.281, 515.025 940.706, 523 940.834 C 538.136 941.077, 543.102 941.627, 544.087 943.170 C 544.409 943.676, 544.088 948.232, 543.372 953.295 C 541.643 965.521, 541.687 971.888, 543.585 984.210 C 547.888 1012.146, 560.473 1036.473, 581.500 1057.500 C 588.661 1064.661, 591.159 1066.752, 601 1073.824 C 618.189 1086.177, 637.635 1092.782, 663.475 1095.043 C 687.419 1097.138, 705.821 1094.679, 723.926 1086.967 C 749.355 1076.135, 775.381 1052.379, 790.171 1026.500 C 796.307 1015.762, 798.500 1010.759, 801.883 999.776 C 806.117 986.034, 807.340 978.918, 807.950 964.500 L 808.500 951.500 817 950.736 C 821.675 950.316, 827.897 949.991, 830.826 950.014 C 833.982 950.039, 835.911 949.665, 835.560 949.096 C 835.208 948.528, 836.908 948.201, 839.733 948.293 C 844.797 948.458, 857.822 947.228, 859.051 946.468 C 859.454 946.219, 859.342 947.925, 858.803 950.258 C 857.421 956.228, 858.259 976.403, 859.974 978.469 C 861.390 980.175, 864.764 980.177, 959 978.515 C 1000.543 977.783, 1080.125 977.807, 1124.551 978.565 C 1148.780 978.978, 1169.875 978.997, 1171.429 978.607 L 1174.254 977.898 1173.877 950.699 L 1173.500 923.500 1179.500 920.497 C 1182.800 918.845, 1187.975 916.370, 1191 914.997 L 1196.500 912.500 1236.789 912.217 C 1258.948 912.062, 1276.881 911.612, 1276.640 911.217 C 1276.399 910.823, 1283.159 910.437, 1291.661 910.359 C 1305.426 910.233, 1307.284 910.014, 1308.615 908.359 C 1310.038 906.591, 1310.062 906.601, 1309.109 908.584 C 1305.593 915.900, 1303.767 948.864, 1306.101 962.885 C 1309.183 981.401, 1310.068 985.493, 1311.232 986.619 C 1312.680 988.021, 1347.290 989.039, 1348.612 987.720 C 1349.042 987.291, 1348.637 984.591, 1347.713 981.720 C 1344.888 972.946, 1343.992 968.522, 1342.599 956.465 C 1340.885 941.620, 1340.576 927.380, 1341.951 926.530 C 1342.528 926.174, 1343 924.587, 1343 923.004 C 1343 921.422, 1343.864 916.611, 1344.919 912.313 C 1348.387 898.195, 1351.859 889.995, 1354.365 890.004 C 1356.268 890.010, 1371.837 910.196, 1371.946 912.797 C 1371.976 913.511, 1370.366 919.586, 1368.369 926.297 C 1363.458 942.802, 1362.758 949.151, 1363.276 972.500 L 1363.720 992.500 1367.381 1002.500 C 1375.315 1024.169, 1385.046 1039.854, 1400.316 1055.587 C 1414.580 1070.284, 1435.607 1083.347, 1453 1088.317 C 1473.631 1094.212, 1504.165 1095.925, 1521.500 1092.161 C 1548.937 1086.203, 1574.105 1070.672, 1593.064 1048 C 1596.054 1044.425, 1598.761 1041.275, 1599.081 1041 C 1602.366 1038.173, 1614.905 1015.738, 1618.923 1005.500 C 1620.218 1002.200, 1621.792 998.940, 1622.420 998.255 C 1623.232 997.369, 1630.047 996.836, 1646.031 996.407 C 1667.724 995.824, 1668.880 995.892, 1679.500 998.365 C 1685.550 999.775, 1693.200 1001.882, 1696.500 1003.049 C 1711.879 1008.488, 1715.637 1008.859, 1757.595 1009.081 C 1785.742 1009.230, 1796.715 1009.601, 1796.431 1010.394 C 1796.213 1011.002, 1796.819 1012.515, 1797.776 1013.755 C 1799.768 1016.337, 1798.797 1016.281, 1838.339 1016.106 L 1862.178 1016 1866.503 1011.551 C 1870.228 1007.717, 1870.620 1006.929, 1869.329 1005.858 C 1868.506 1005.175, 1865.620 1004.615, 1862.916 1004.615 C 1860.212 1004.615, 1858 1004.266, 1858 1003.839 C 1858 1003.412, 1858.787 1003.358, 1859.750 1003.719 C 1861.156 1004.246, 1861.281 1004.092, 1860.387 1002.937 C 1859.776 1002.147, 1859.003 999.081, 1858.670 996.124 L 1858.064 990.749 1861.282 991.289 C 1863.052 991.587, 1865.287 992.141, 1866.250 992.522 C 1867.616 993.062, 1868.003 992.696, 1868.015 990.857 C 1868.026 989.325, 1866.592 987.262, 1863.920 984.963 C 1858.957 980.693, 1858.159 977.429, 1858.181 961.500 C 1858.198 949.426, 1858.987 946.078, 1862.003 945.289 C 1863.101 945.002, 1864 944.615, 1864 944.430 C 1864 942.066, 1860.219 938.357, 1852.349 933 C 1847.096 929.425, 1842.227 925.375, 1841.528 924 C 1840.828 922.625, 1840.041 918.012, 1839.778 913.750 L 1839.300 906 1844.900 906.134 L 1850.500 906.267 1845.792 906.925 C 1838.819 907.899, 1839.118 908.689, 1846.271 908.191 C 1857.234 907.429, 1856.230 912.907, 1855.716 856.671 C 1855.185 798.509, 1855.182 798.463, 1850.123 760 C 1849.580 755.875, 1848.932 748.900, 1848.682 744.500 C 1848.142 734.987, 1846.349 715.842, 1844.889 704 C 1844.312 699.325, 1843.446 691.225, 1842.964 686 C 1842.482 680.775, 1841.650 674.700, 1841.115 672.500 C 1840.580 670.300, 1839.381 664.675, 1838.451 660 C 1835.704 646.193, 1827.621 620.898, 1820.484 603.774 C 1817.301 596.137, 1813.928 587.430, 1809.530 575.500 C 1799.877 549.312, 1798.374 545.808, 1785.508 519.500 C 1770.621 489.058, 1760.091 467.222, 1757.539 461.500 C 1751.514 447.990, 1735.535 429.068, 1723.937 421.708 C 1718.217 418.078, 1710.885 415.404, 1707.692 415.783 C 1706.697 415.900, 1706.125 415.607, 1706.419 415.131 C 1707.075 414.070, 1698.731 412.824, 1696.274 413.617 C 1694.766 414.103, 1694.725 414.019, 1696 413.057 C 1697.160 412.182, 1696.617 412.079, 1693.605 412.601 C 1690.580 413.126, 1689.887 412.992, 1690.500 412 C 1691.113 411.008, 1690.453 410.880, 1687.546 411.425 C 1684.741 411.952, 1683.990 411.825, 1684.550 410.919 C 1685.086 410.052, 1684.558 409.851, 1682.684 410.210 C 1681.246 410.484, 1679.914 410.243, 1679.724 409.672 C 1679.534 409.102, 1676.931 408.592, 1673.939 408.540 C 1670.948 408.488, 1667.889 408.064, 1667.143 407.597 C 1666.397 407.131, 1662.797 406.745, 1659.143 406.739 C 1654.455 406.731, 1653.089 406.468, 1654.500 405.845 C 1655.857 405.247, 1654.974 405.124, 1651.750 405.463 C 1649.138 405.737, 1647 405.564, 1647 405.077 C 1647 403.973, 1628.050 402.428, 1618 402.713 C 1612.755 402.862, 1611.252 402.666, 1613 402.062 C 1615.814 401.091, 1608.166 400.551, 1593 400.650 C 1586.787 400.691, 1585.442 400.500, 1588 399.940 C 1590.230 399.451, 1588.416 399.315, 1583 399.564 C 1576.853 399.846, 1575.192 399.689, 1577 398.995 C 1578.805 398.302, 1577.278 398.160, 1571.500 398.481 C 1566.332 398.769, 1564.208 398.610, 1565.500 398.034 C 1566.963 397.380, 1565.754 397.090, 1561 396.952 C 1557.425 396.848, 1546.175 396.494, 1536 396.165 C 1501.574 395.052, 1460.637 395.056, 1459.292 396.173 C 1458.593 396.753, 1456.554 396.955, 1454.761 396.623 C 1450.097 395.759, 1430.577 397.661, 1424.580 399.564 C 1413.982 402.928, 1401.232 410.134, 1387.484 420.530 C 1379.797 426.343, 1373.126 432.090, 1372.661 433.300 C 1371.830 435.458, 1371.703 733.823, 1372.521 761.710 C 1373.015 778.561, 1372.649 779.377, 1364.842 778.836 C 1362.178 778.651, 1359.838 778.950, 1359.642 779.500 C 1359.446 780.050, 1359.174 762.050, 1359.037 739.500 C 1358.900 716.950, 1358.625 696.250, 1358.426 693.500 C 1358.226 690.750, 1358.161 634.275, 1358.281 568 C 1358.545 422.852, 1358.205 361.759, 1357.129 361.038 C 1356.688 360.742, 1356.260 333.555, 1356.179 300.622 C 1356.074 257.501, 1355.714 240.360, 1354.894 239.372 C 1353.947 238.232, 1341.828 238.012, 1283.128 238.070 C 1239.397 238.114, 1213.262 238.490, 1214.500 239.059 C 1215.810 239.660, 1212.132 239.895, 1203.834 239.738 C 1196.867 239.607, 1190.830 239.838, 1190.417 240.250 C 1190.004 240.662, 1177.929 240.913, 1163.583 240.806 C 1144.302 240.663, 1140.108 240.442, 1147.500 239.959 C 1156.084 239.397, 1154.951 239.298, 1139.500 239.261 C 1121.287 239.217, 1106 238.759, 1062.500 236.956 C 1049.300 236.408, 1033.477 236.087, 1027.339 236.241 C 1021.200 236.396, 1016.379 236.196, 1016.625 235.798 C 1017.227 234.824, 1006.625 234.996, 1005.022 235.987 M 1173.287 239.740 C 1176.469 239.939, 1181.419 239.937, 1184.287 239.736 C 1187.154 239.535, 1184.550 239.372, 1178.500 239.374 C 1172.450 239.376, 1170.104 239.541, 1173.287 239.740 M 908.762 240.562 C 907.927 241.408, 750.003 243.420, 687.500 243.381 C 664.950 243.367, 620.625 243.005, 589 242.576 C 531.876 241.803, 480.483 242.760, 399.500 246.106 C 369.944 247.327, 293.715 246.592, 273.500 244.891 C 266.900 244.336, 232.865 243.669, 197.867 243.411 L 134.233 242.940 133.476 277.720 C 132.777 309.824, 133.007 328.298, 134.990 399.500 C 135.388 413.800, 135.455 452.725, 135.139 486 C 133.974 608.508, 134.940 784.414, 136.786 786.139 C 137.179 786.506, 154.825 787.412, 176 788.153 C 219.262 789.667, 431.831 790.008, 472.500 788.630 C 499.730 787.707, 643.984 787.610, 702 788.477 C 723.175 788.793, 774.700 789.485, 816.500 790.016 C 858.300 790.546, 912.075 791.272, 936 791.629 C 984.073 792.346, 1052.818 790.948, 1103.500 788.223 C 1135.144 786.521, 1154.946 786.299, 1228 786.828 C 1248.625 786.977, 1278.325 786.635, 1294 786.068 C 1309.675 785.501, 1330.111 785.029, 1339.413 785.019 L 1356.326 785 1355.479 737.250 C 1355.013 710.987, 1354.585 615.924, 1354.528 525.999 C 1354.472 436.073, 1354.110 361.986, 1353.724 361.362 C 1353.338 360.737, 1352.811 333.794, 1352.552 301.488 C 1352.294 269.182, 1351.898 242.565, 1351.672 242.338 C 1350.715 241.381, 1227.958 241.980, 1200.488 243.076 C 1182.745 243.784, 1161.517 243.988, 1148.500 243.577 C 1136.400 243.194, 1113 242.447, 1096.500 241.916 C 1057.382 240.658, 909.717 239.593, 908.762 240.562 M 1448.500 400.031 C 1432.874 401.326, 1422.408 403.772, 1413.645 408.179 C 1404.188 412.933, 1391.072 421.723, 1382.271 429.205 L 1376.041 434.500 1375.327 466 C 1374.378 507.885, 1374.978 746.257, 1376.036 747.383 C 1377.185 748.605, 1408.572 747.554, 1445 745.072 C 1485.413 742.318, 1519.507 741.528, 1534.611 742.994 C 1580.302 747.431, 1613.027 766.574, 1635.482 802 C 1649.670 824.383, 1666.746 859.901, 1676.398 887.104 L 1680.161 897.709 1689.830 898.382 C 1695.149 898.752, 1719.750 899.477, 1744.500 899.994 C 1769.250 900.511, 1797.150 901.404, 1806.500 901.980 C 1820.302 902.829, 1841.768 903.344, 1851.250 903.054 C 1852.867 903.004, 1853 901.168, 1853 878.964 L 1853 854.928 1844.250 855.532 C 1836.478 856.069, 1835.130 855.903, 1832.190 854.046 C 1826.958 850.743, 1826.311 847.791, 1825.515 823.599 L 1824.794 801.697 1829.658 802.273 C 1836.806 803.120, 1845.549 806.702, 1849.078 810.231 L 1852.171 813.325 1851.619 808.913 C 1851.315 806.486, 1850.796 800.900, 1850.465 796.500 C 1850.134 792.100, 1848.778 779.050, 1847.452 767.500 C 1846.125 755.950, 1844.126 734.800, 1843.009 720.500 C 1839.915 680.871, 1837.001 663.411, 1829.411 639 C 1824.230 622.336, 1824.902 623, 1813.227 622.998 C 1794.401 622.995, 1793.632 621.815, 1777.378 568 C 1775.302 561.125, 1768.054 539.075, 1761.271 519 C 1745.510 472.349, 1742 461.353, 1742 458.630 C 1742 457.416, 1742.881 454.694, 1743.958 452.581 L 1745.917 448.740 1741.462 442.951 C 1733.131 432.124, 1723.208 424.642, 1711.583 420.423 C 1701.283 416.684, 1658.406 409.541, 1631.500 407.081 C 1588.448 403.146, 1559.388 400.990, 1536.014 399.997 C 1509.668 398.879, 1462.186 398.897, 1448.500 400.031 M 1626 443.979 C 1606.475 444.379, 1582.063 445.069, 1571.750 445.512 L 1553 446.316 1553.023 487.908 C 1553.035 510.784, 1552.975 556.275, 1552.889 589 C 1552.803 621.725, 1552.905 665.150, 1553.116 685.500 L 1553.500 722.500 1561.500 723.271 C 1580.549 725.105, 1603.047 733.261, 1619.500 744.295 C 1628.707 750.470, 1641.275 761.407, 1650.682 771.430 C 1661.524 782.982, 1671.874 798.628, 1684.500 822.552 C 1699.466 850.909, 1703.678 854.368, 1724.883 855.714 C 1730.043 856.042, 1749.056 855.718, 1767.133 854.995 L 1800 853.680 1799.998 839.590 C 1799.997 831.840, 1799.572 813.800, 1799.053 799.500 C 1798.534 785.200, 1797.850 760.900, 1797.534 745.500 C 1796.383 689.502, 1793.819 668.714, 1783.029 627.909 C 1780.788 619.434, 1776.938 604.400, 1774.474 594.500 C 1768.595 570.877, 1767.113 565.513, 1759.416 540 C 1743.699 487.902, 1734.313 463.029, 1727.836 456.314 C 1723.868 452.200, 1712.676 446.661, 1705 445.013 C 1697.733 443.452, 1669.601 443.084, 1626 443.979 M 1586.588 447.652 C 1570.137 448.388, 1556.524 449.142, 1556.339 449.328 C 1555.910 449.757, 1555.496 640.230, 1555.825 685.750 L 1556.073 720 1559.287 720.016 C 1563.972 720.039, 1580.261 723.593, 1589.500 726.609 C 1606.873 732.281, 1627.569 744.756, 1641.636 758.036 C 1660.420 775.769, 1672.986 793.332, 1687.931 822.743 C 1696.728 840.057, 1701.700 846.504, 1708.808 849.817 C 1714.365 852.407, 1714.973 852.470, 1734.500 852.485 C 1749.305 852.496, 1794.149 851.474, 1797.846 851.041 C 1798.037 851.018, 1797.921 846.388, 1797.590 840.750 C 1797.258 835.112, 1796.547 812.500, 1796.009 790.500 C 1794.374 723.680, 1793.945 712.186, 1792.410 694.136 C 1790.738 674.479, 1787.652 656.705, 1782.489 637 C 1780.544 629.575, 1775.591 610.225, 1771.482 594 C 1756.182 533.572, 1734.179 467.142, 1726.896 459.390 C 1721.170 453.294, 1711.670 448.940, 1700 447.062 C 1691.136 445.636, 1623.827 445.986, 1586.588 447.652 M 1605 455.435 C 1581.208 456.698, 1578.724 457.383, 1575.372 463.607 C 1573.731 466.655, 1573.700 469.187, 1574.863 504.678 C 1576.405 551.737, 1578.580 589.727, 1580.042 595.157 C 1580.655 597.431, 1582.093 600.559, 1583.238 602.108 C 1586.906 607.070, 1590.019 607.826, 1609.523 608.496 C 1619.411 608.835, 1637.175 609.766, 1649 610.564 C 1670.365 612.005, 1728.929 617.543, 1729.448 618.172 C 1729.597 618.352, 1729.993 619.648, 1730.329 621.052 C 1730.856 623.259, 1730.516 623.732, 1727.804 624.552 C 1726.080 625.073, 1724.182 626.314, 1723.585 627.309 C 1721.621 630.583, 1725.244 632, 1735.580 632 C 1743.102 632, 1745.203 631.656, 1747.107 630.115 C 1749.109 628.494, 1749.246 628.002, 1748.088 626.606 C 1747.347 625.713, 1744.999 624.704, 1742.870 624.363 C 1739.419 623.811, 1739 623.434, 1739 620.872 L 1739 618 1747.984 618 C 1756.372 618, 1757.173 617.818, 1760.046 615.250 C 1764.607 611.175, 1764.790 606.923, 1761.043 592.130 C 1759.320 585.326, 1755.298 571.826, 1752.106 562.130 C 1740.099 525.660, 1738.777 521.339, 1737.390 514.012 C 1735.352 503.253, 1733.455 497.032, 1728.240 484 C 1718.761 460.310, 1714.575 457.182, 1689.500 455.044 C 1674.377 453.754, 1633.074 453.946, 1605 455.435 M 1588.413 651.039 C 1584.162 651.923, 1583.323 652.578, 1582.562 655.608 C 1582.103 657.438, 1582.448 658.846, 1583.701 660.248 C 1585.398 662.147, 1586.289 662.224, 1599.410 661.609 C 1607.060 661.250, 1614.443 660.404, 1615.817 659.728 C 1619.573 657.882, 1620.615 655.645, 1619.183 652.502 L 1617.974 649.849 1604.737 650.124 C 1597.457 650.274, 1590.111 650.687, 1588.413 651.039 M 1292 789.152 C 1281.825 789.520, 1253.250 789.826, 1228.500 789.832 L 1183.500 789.842 1183.217 826.171 C 1182.876 869.940, 1184.024 894.353, 1186.676 899.740 C 1190.237 906.972, 1190.508 907.021, 1230.669 907.658 C 1251.131 907.984, 1275.044 907.775, 1286.420 907.171 C 1305.866 906.140, 1306.401 906.054, 1308.920 903.528 L 1311.500 900.941 1311.500 844.878 C 1311.500 814.043, 1311.275 788.740, 1311 788.648 C 1310.725 788.557, 1302.175 788.783, 1292 789.152 M 646.955 792.045 C 626.499 794.862, 602.688 805.361, 579.709 821.696 C 569.752 828.775, 547.079 851.094, 540.737 860.059 C 533.456 870.351, 525.628 884.107, 523.516 890.321 C 522.455 893.444, 521.342 895.989, 521.043 895.975 C 520.744 895.961, 518.985 892.023, 517.133 887.225 C 508.182 864.036, 488.466 839.049, 464.531 820.564 C 453.818 812.290, 447.916 808.822, 435.722 803.637 C 412.690 793.843, 407.814 793.004, 370 792.325 C 335.366 791.703, 328.451 792.425, 310.049 798.582 C 266.463 813.165, 226.924 852.526, 209.676 898.500 C 207.135 905.273, 202.553 922.920, 203.188 923.488 C 204.013 924.227, 220.227 932.086, 220.362 931.813 C 220.447 931.641, 222.225 926.325, 224.312 920 C 229.051 905.645, 239.214 884.402, 246.751 873.101 C 253.728 862.640, 273.601 842.349, 284 835.067 C 297.355 825.716, 310.908 819.827, 326.558 816.575 C 345.553 812.628, 378.227 812.116, 394 815.519 C 423.314 821.843, 448.888 835.768, 470.068 856.938 C 490.173 877.032, 502.359 898.887, 509.969 928.500 C 512.008 936.435, 512.387 936.670, 523.500 936.873 L 529.500 936.983 532.716 924.962 C 536.472 910.922, 541.417 899.882, 549.316 887.900 C 570.466 855.820, 601.514 830.697, 634.312 819.122 C 662.752 809.086, 694.731 809.065, 722.372 819.067 C 770.144 836.353, 805.762 878.219, 821.642 935.750 L 824.472 946 828.986 945.986 C 838.531 945.957, 838.333 946.243, 837.552 933.602 C 835.129 894.378, 819.051 860.874, 787.684 829.679 C 769.424 811.520, 750.841 800.756, 726.859 794.449 C 716.789 791.800, 715.621 791.716, 685 791.434 C 667.675 791.274, 650.555 791.549, 646.955 792.045 M 1828.372 824.991 C 1829.051 845.229, 1829.561 848.560, 1832.327 850.856 C 1834.263 852.463, 1843.662 853.474, 1848.402 852.584 L 1852 851.909 1852 837.898 C 1852 830.191, 1851.490 821.861, 1850.867 819.387 C 1849.303 813.174, 1845.245 809.465, 1837.342 807.024 C 1826.797 803.767, 1827.605 802.149, 1828.372 824.991 M 183.763 822.500 C 181.708 825.250, 178.616 831.100, 176.892 835.500 C 170.386 852.104, 173.268 872.465, 183.682 883.480 L 186.500 886.460 187.252 868.980 C 187.665 859.366, 187.890 843.850, 187.752 834.500 L 187.500 817.500 183.763 822.500 M 1100.694 845.750 C 1100.461 846.163, 1100.608 863.600, 1101.021 884.500 C 1101.434 905.400, 1101.530 934.017, 1101.234 948.094 L 1100.696 973.687 1103.098 974.330 C 1104.419 974.683, 1108.200 974.978, 1111.500 974.984 L 1117.500 974.996 1117.740 909.998 L 1117.981 845 1109.549 845 C 1104.912 845, 1100.927 845.337, 1100.694 845.750 M 942.851 846.730 L 936.202 847.087 935.851 875.793 C 935.658 891.582, 935.656 920.362, 935.847 939.750 L 936.194 975 943.445 975 L 950.696 975 951.521 933.750 C 952.883 865.613, 952.770 846.542, 951 846.451 C 950.175 846.409, 946.508 846.534, 942.851 846.730 M 1834 882.369 L 1834 892 1837.750 891.986 C 1846.029 891.956, 1847.494 890.476, 1846.408 883.234 C 1845.556 877.554, 1842.532 874.097, 1837.750 873.335 L 1834 872.738 1834 882.369 M 1836.525 881.250 C 1836.621 884.138, 1836.766 886.837, 1836.849 887.250 C 1836.932 887.663, 1838.634 888, 1840.631 888 C 1844.242 888, 1844.259 887.981, 1843.677 884.394 C 1842.925 879.763, 1840.449 876, 1838.153 876 C 1836.625 876, 1836.378 876.796, 1836.525 881.250 M 1207.206 910.741 C 1210.895 910.932, 1217.195 910.934, 1221.206 910.743 C 1225.218 910.553, 1222.200 910.396, 1214.500 910.395 C 1206.800 910.393, 1203.518 910.549, 1207.206 910.741 M 1488.457 921.931 C 1488.774 922.443, 1488.506 923.187, 1487.862 923.585 C 1487.131 924.037, 1486.959 923.876, 1487.405 923.155 C 1488.307 921.695, 1486.024 921.659, 1482.315 923.075 C 1479.600 924.111, 1479.569 924.200, 1481.441 925.575 C 1482.509 926.359, 1482.901 927, 1482.314 927 C 1481.726 927, 1480.696 926.338, 1480.025 925.530 C 1478.960 924.247, 1478.293 924.320, 1474.803 926.101 C 1469.888 928.608, 1461.820 935.899, 1462.587 937.141 C 1462.896 937.641, 1462.778 937.926, 1462.324 937.775 C 1461.871 937.624, 1461.428 937.910, 1461.340 938.410 C 1461.251 938.911, 1460.464 939.721, 1459.590 940.210 C 1457.518 941.369, 1454.569 947, 1456.033 947 C 1456.630 947, 1456.835 947.457, 1456.490 948.016 C 1456.144 948.575, 1455.491 948.803, 1455.037 948.523 C 1454.583 948.242, 1453.474 949.858, 1452.572 952.113 C 1451.288 955.321, 1451.191 956.525, 1452.123 957.649 C 1453.047 958.762, 1453.042 959.356, 1452.098 960.292 C 1451.145 961.239, 1451.019 961.067, 1451.516 959.500 L 1452.151 957.500 1450.829 959.500 C 1448.587 962.892, 1449.137 975.545, 1451.836 982.654 C 1453.121 986.038, 1455.033 989.732, 1456.086 990.862 C 1457.139 991.992, 1458 993.353, 1458 993.886 C 1458 994.419, 1459.110 995.728, 1460.466 996.795 C 1461.822 997.862, 1462.610 999.117, 1462.216 999.584 C 1461.822 1000.052, 1462.298 999.823, 1463.273 999.076 C 1464.804 997.902, 1464.964 997.930, 1464.446 999.279 C 1464.029 1000.368, 1464.528 1000.941, 1466.095 1001.170 C 1467.332 1001.352, 1468.564 1002.175, 1468.834 1003 C 1469.271 1004.333, 1469.119 1004.333, 1467.471 1003 C 1466.451 1002.175, 1465.945 1002.048, 1466.346 1002.717 C 1467.434 1004.529, 1476.288 1008.737, 1477.889 1008.204 C 1478.653 1007.949, 1478.999 1008.193, 1478.657 1008.745 C 1477.502 1010.614, 1486.345 1012.182, 1495.077 1011.657 C 1505.727 1011.016, 1506.180 1010.922, 1505.070 1009.583 C 1504.468 1008.858, 1505.019 1008.449, 1506.739 1008.346 C 1508.589 1008.235, 1508.914 1008.441, 1507.903 1009.081 C 1505.735 1010.454, 1507.367 1010.163, 1511.486 1008.441 C 1513.538 1007.584, 1514.946 1006.613, 1514.617 1006.283 C 1513.847 1005.514, 1515.911 1003, 1517.314 1003 C 1517.901 1003, 1517.509 1003.661, 1516.441 1004.468 C 1515.374 1005.276, 1514.950 1005.936, 1515.500 1005.936 C 1517.167 1005.936, 1520.020 1003.354, 1519.234 1002.556 C 1518.831 1002.146, 1519.255 1001.965, 1520.177 1002.155 C 1522.184 1002.568, 1530.094 995.226, 1534.938 988.455 C 1536.829 985.812, 1537.843 983.979, 1537.191 984.382 C 1536.302 984.932, 1536.255 984.460, 1537.003 982.492 C 1538.253 979.206, 1538.252 978.726, 1537 979.500 C 1535.418 980.478, 1535.838 978.380, 1537.500 977 C 1538.325 976.315, 1539.061 974.573, 1539.136 973.128 C 1539.267 970.613, 1539.292 970.602, 1539.721 972.865 C 1539.968 974.166, 1539.681 975.719, 1539.085 976.315 C 1537.670 977.730, 1537.681 979.315, 1539.100 978.438 C 1539.840 977.981, 1539.814 978.479, 1539.019 979.965 C 1538.369 981.178, 1538.039 982.372, 1538.284 982.618 C 1538.674 983.007, 1541.432 977.339, 1541.504 976 C 1541.519 975.725, 1541.923 974.880, 1542.403 974.122 C 1544.438 970.910, 1543.868 954.117, 1541.828 957.169 C 1541.259 958.021, 1541.163 957.533, 1541.562 955.813 C 1542.467 951.908, 1537.090 942.438, 1530.175 935.759 C 1524.446 930.226, 1515.666 924.220, 1512.317 923.544 C 1511.318 923.343, 1509.233 922.688, 1507.685 922.089 C 1504.077 920.693, 1499.433 920.698, 1496.814 922.100 C 1495.319 922.899, 1494.944 922.899, 1495.438 922.100 C 1495.891 921.368, 1494.740 921, 1492 921 C 1489.713 921, 1488.138 921.414, 1488.457 921.931 M 666.220 923.449 C 663.316 924.152, 660.616 925.070, 660.220 925.488 C 659.824 925.906, 660.400 925.989, 661.500 925.672 C 662.600 925.355, 664.850 924.858, 666.500 924.569 C 668.783 924.169, 668.592 924.345, 665.701 925.306 C 663.611 926, 662.111 926.778, 662.367 927.034 C 662.624 927.290, 661.789 927.500, 660.512 927.500 C 659.236 927.500, 658.400 927.163, 658.655 926.750 C 659.485 925.406, 658.034 925.953, 653.980 928.513 C 651.791 929.894, 650 931.496, 650 932.072 C 650 932.647, 649.601 932.871, 649.113 932.570 C 648.626 932.269, 647.613 932.805, 646.863 933.761 C 645.630 935.335, 645.666 935.370, 647.250 934.128 C 648.293 933.310, 649 933.185, 649 933.819 C 649 934.403, 648.543 935.165, 647.984 935.510 C 647.425 935.856, 647.286 936.670, 647.676 937.319 C 648.065 937.969, 647.603 937.867, 646.650 937.092 C 644.714 935.521, 644.606 935.600, 640.146 941.875 C 638.436 944.281, 637.287 946.655, 637.593 947.150 C 637.898 947.645, 637.609 947.926, 636.949 947.775 C 636.290 947.624, 635.523 948.125, 635.245 948.889 C 634.936 949.740, 635.178 950.008, 635.870 949.580 C 636.492 949.196, 637 949.359, 637 949.941 C 637 950.523, 636.361 951, 635.580 951 C 634.094 951, 631.853 956.940, 630.175 965.329 C 629.133 970.538, 631.068 983.189, 633.006 983.835 C 633.560 984.020, 633.764 984.572, 633.461 985.063 C 632.208 987.091, 641.318 1000.539, 643.170 999.395 C 643.654 999.096, 643.926 999.397, 643.775 1000.063 C 643.624 1000.730, 645.445 1002.787, 647.823 1004.634 C 651.553 1007.532, 652.444 1007.833, 654.323 1006.833 C 656.186 1005.840, 656.327 1005.883, 655.301 1007.127 C 654.337 1008.296, 654.497 1008.829, 656.113 1009.839 C 657.231 1010.537, 659.098 1010.796, 660.313 1010.423 C 661.516 1010.054, 662.150 1010.120, 661.721 1010.571 C 660.749 1011.594, 669.231 1013.897, 674.191 1013.956 C 676.221 1013.980, 678.176 1013.524, 678.536 1012.941 C 678.910 1012.336, 680.542 1012.141, 682.345 1012.485 C 684.912 1012.975, 685.170 1012.881, 683.729 1011.982 C 681.884 1010.831, 682.244 1008.989, 684.309 1009.015 C 685.114 1009.026, 685.064 1009.307, 684.155 1009.883 C 683.157 1010.516, 683.458 1010.898, 685.326 1011.367 C 688.570 1012.181, 691.024 1011.225, 690.330 1009.417 C 690.031 1008.638, 690.284 1008, 690.893 1008 C 691.502 1008, 692 1008.440, 692 1008.979 C 692 1009.574, 692.979 1009.511, 694.500 1008.818 C 695.875 1008.192, 697 1007.301, 697 1006.839 C 697 1006.378, 697.640 1006, 698.423 1006 C 701.186 1006, 705.837 1001.116, 705.551 998.514 C 705.403 997.162, 705.699 996.314, 706.209 996.629 C 706.719 996.944, 706.895 997.832, 706.600 998.601 C 706.304 999.371, 706.409 1000, 706.831 1000 C 708.199 1000, 710 997.647, 710 995.859 C 710 994.901, 710.520 993.797, 711.155 993.405 C 711.934 992.923, 712.040 993.148, 711.483 994.095 C 711.028 994.868, 711.634 994.643, 712.828 993.595 C 715.132 991.574, 715.738 990.426, 713.900 991.562 C 713.127 992.039, 713.138 991.611, 713.935 990.121 C 714.560 988.954, 715.306 988, 715.594 988 C 715.882 988, 715.797 988.520, 715.405 989.155 C 714.958 989.876, 715.131 990.037, 715.865 989.584 C 716.960 988.906, 722 979.781, 722 978.474 C 722 978.148, 721.550 978.160, 721 978.500 C 719.817 979.231, 719.817 978.252, 721 975.500 L 721.859 973.500 722 975.500 L 722.141 977.500 723 975.500 C 723.473 974.400, 723.891 970.189, 723.930 966.143 C 723.988 959.996, 723.753 958.881, 722.500 959.362 C 721.611 959.703, 721 959.372, 721 958.550 C 721 957.788, 720.738 956.339, 720.418 955.332 C 719.886 953.656, 719.971 953.665, 721.418 955.441 C 722.288 956.509, 723 956.921, 723 956.358 C 723 955.794, 722.692 955.025, 722.315 954.648 C 721.938 954.271, 721.129 952.506, 720.517 950.726 C 719.904 948.945, 717.642 945.129, 715.489 942.245 C 712.486 938.223, 711.099 937.115, 709.537 937.491 C 708.417 937.761, 708.063 937.723, 708.750 937.407 C 710.946 936.399, 710.146 935.426, 703.250 930.721 C 691.350 922.602, 679.404 920.256, 666.220 923.449 M 362.045 924.092 C 351.914 926.078, 340.621 934.096, 333.605 944.284 C 331.548 947.270, 329.750 950.340, 329.609 951.107 C 329.469 951.873, 328.541 954.300, 327.548 956.500 C 325.277 961.532, 324.042 977.710, 326.022 976.487 C 326.891 975.949, 327.064 976.087, 326.555 976.910 C 326.141 977.581, 326.086 979.647, 326.434 981.501 C 326.919 984.086, 327.499 984.789, 328.919 984.516 C 330.347 984.241, 330.651 984.619, 330.247 986.164 C 329.845 987.699, 329.524 987.856, 328.877 986.835 C 328.411 986.101, 328.024 985.974, 328.015 986.554 C 327.969 989.749, 340.943 1006, 343.540 1006 C 344.208 1006, 345.293 1006.648, 345.951 1007.441 C 346.608 1008.233, 347.807 1008.628, 348.614 1008.318 C 349.514 1007.972, 349.969 1008.277, 349.791 1009.106 C 349.380 1011.015, 358.648 1014.120, 363 1013.531 C 365.586 1013.181, 366.108 1013.323, 365 1014.075 C 363.937 1014.796, 365.250 1014.943, 369.500 1014.578 C 372.800 1014.294, 376.512 1014.043, 377.750 1014.020 C 378.988 1013.997, 380 1013.743, 380 1013.457 C 380 1013.170, 378.988 1012.529, 377.750 1012.031 C 375.563 1011.152, 375.575 1011.125, 378.167 1011.063 C 379.633 1011.029, 381.027 1011.563, 381.264 1012.250 C 381.845 1013.933, 391.785 1009.128, 398.707 1003.818 C 402.872 1000.622, 403.672 999.562, 402.707 998.517 C 402.043 997.798, 401.050 997.460, 400.500 997.766 C 399.950 998.072, 400.575 997.142, 401.888 995.700 C 403.704 993.705, 404.692 993.300, 406.012 994.006 C 407.287 994.689, 408.221 994.413, 409.529 992.968 C 410.509 991.886, 410.903 990.993, 410.405 990.985 C 409.907 990.976, 410.175 990.533, 411 990 C 412.272 989.178, 412.225 989.028, 410.691 989.015 C 409.665 989.007, 409.168 988.538, 409.542 987.932 C 409.905 987.344, 410.825 987.103, 411.586 987.395 C 412.380 987.699, 413.426 986.982, 414.040 985.713 C 415.096 983.530, 415.087 983.528, 413.421 985.500 C 411.922 987.273, 411.803 987.292, 412.365 985.668 C 412.714 984.661, 413 983.648, 413 983.418 C 413 983.188, 413.603 983, 414.339 983 C 415.706 983, 418.057 978.877, 417.930 976.703 C 417.891 976.041, 417.473 976.400, 417 977.500 C 416.339 979.039, 416.124 979.125, 416.070 977.872 C 416.032 976.977, 416.675 975.685, 417.500 975 C 419.177 973.609, 419.535 961.072, 418 957.500 C 417.421 956.153, 417.113 955.990, 417.055 957 C 416.979 958.333, 416.862 958.333, 416 957 C 414.714 955.011, 414.741 953.722, 416.051 954.532 C 417.752 955.583, 414.342 948.304, 410.866 943.463 C 409.103 941.008, 407.232 939, 406.708 939 C 406.184 939, 406.256 939.604, 406.869 940.342 C 407.481 941.080, 407.649 942.052, 407.241 942.502 C 406.834 942.952, 407.031 943.016, 407.681 942.644 C 408.330 942.272, 409.086 942.331, 409.361 942.775 C 409.635 943.219, 408.578 943.565, 407.012 943.544 C 404.759 943.514, 404.395 943.229, 405.268 942.177 C 406.084 941.194, 406.033 940.638, 405.073 940.045 C 404.015 939.391, 404.013 939.162, 405.064 938.812 C 407.039 938.154, 405.446 936.377, 398.885 931.922 C 390.879 926.485, 386.225 924.568, 384.502 925.999 C 383.677 926.683, 382.954 926.734, 382.583 926.134 C 382.255 925.604, 382.553 924.943, 383.244 924.664 C 384.094 924.322, 384.015 924.155, 383 924.149 C 382.175 924.144, 380.600 924.527, 379.500 925 C 377.870 925.701, 377.812 925.872, 379.191 925.930 C 380.121 925.968, 381.149 926.432, 381.475 926.960 C 381.808 927.499, 380.640 927.422, 378.811 926.784 C 377.020 926.160, 376.107 925.464, 376.783 925.239 C 377.459 925.014, 377.758 924.418, 377.447 923.915 C 376.759 922.800, 368.129 922.900, 362.045 924.092 M 1486.845 929.485 C 1482.021 931.260, 1478.956 933.224, 1471.452 939.350 C 1468.011 942.159, 1463.572 950.555, 1462.060 957.115 C 1460.533 963.736, 1460.776 975.220, 1462.532 979.422 C 1463.374 981.438, 1463.755 983.588, 1463.377 984.199 C 1463 984.809, 1463.098 985.068, 1463.595 984.774 C 1464.093 984.479, 1465.850 985.962, 1467.500 988.069 C 1469.150 990.176, 1471.963 992.618, 1473.750 993.497 C 1475.537 994.375, 1477 995.549, 1477 996.106 C 1477 996.663, 1477.412 996.864, 1477.915 996.553 C 1478.418 996.242, 1478.980 996.416, 1479.165 996.940 C 1479.655 998.333, 1492.542 1000.165, 1497.084 999.487 C 1503.012 998.603, 1507.338 996.474, 1513.704 991.307 C 1520.990 985.393, 1521.058 985.320, 1523.657 980.500 C 1530.115 968.526, 1529.396 954.551, 1521.777 943.934 C 1512.453 930.942, 1498.536 925.185, 1486.845 929.485 M 369 930.991 C 365.975 931.393, 361.925 932.401, 360 933.233 C 353.979 935.833, 346.446 942.147, 342.904 947.561 C 341.032 950.422, 339.093 952.522, 338.595 952.227 C 338.098 951.932, 338.001 952.192, 338.379 952.805 C 338.758 953.417, 338.315 956.218, 337.396 959.029 C 336.161 962.803, 335.863 966.173, 336.256 971.909 C 336.939 981.875, 340.255 989.095, 347.004 995.311 C 349.752 997.843, 352 999.731, 352 999.508 C 352 999.285, 353.537 999.744, 355.417 1000.530 C 366.546 1005.180, 381.896 1001.185, 393.500 990.619 C 396.250 988.116, 398.837 986.052, 399.250 986.033 C 399.663 986.015, 400 985.507, 400 984.904 C 400 984.302, 400.804 982.614, 401.786 981.154 C 408.219 971.597, 408.068 955.023, 401.471 946.373 C 400.112 944.591, 399 942.700, 399 942.170 C 399 941.641, 397.458 939.853, 395.572 938.198 C 393.687 936.543, 392.337 934.996, 392.572 934.761 C 392.808 934.526, 392.438 934.283, 391.750 934.222 C 391.063 934.161, 388.025 933.200, 385 932.088 C 379.161 929.941, 377.687 929.840, 369 930.991 M 665.187 932.146 C 658.853 934.579, 648.021 944.272, 645.498 949.765 C 644.554 951.819, 643.098 954.850, 642.263 956.500 C 639.811 961.342, 639.413 974.866, 641.551 980.652 C 646.586 994.274, 660.097 1002.836, 674.884 1001.774 C 694.184 1000.388, 710.015 982.860, 710.353 962.500 C 710.512 952.908, 706.958 945.224, 699.551 939.147 C 688.812 930.336, 676.451 927.818, 665.187 932.146 M 1485.904 934.250 C 1479.781 937.357, 1471.849 944.164, 1472.469 945.780 C 1472.748 946.508, 1472.583 946.860, 1472.102 946.563 C 1470.756 945.731, 1469.178 948.171, 1467.040 954.384 C 1464.522 961.703, 1464.675 975.839, 1467.325 980.783 C 1468.352 982.697, 1469.549 983.779, 1470.197 983.378 C 1470.873 982.960, 1471.028 983.146, 1470.591 983.853 C 1469.302 985.938, 1476.769 991.760, 1483.684 994.061 C 1488.614 995.702, 1491.407 996.071, 1495.142 995.576 C 1500.838 994.820, 1505.171 993.086, 1504.417 991.865 C 1504.130 991.402, 1504.552 991.275, 1505.353 991.582 C 1506.263 991.931, 1509.446 989.580, 1513.830 985.321 C 1519.861 979.460, 1521.091 977.659, 1522.561 972.525 C 1524.841 964.565, 1524.719 960.271, 1522.006 953.016 C 1517.698 941.497, 1505.102 932, 1494.132 932 C 1492.046 932, 1488.343 933.013, 1485.904 934.250 M 670 934.659 C 666.975 935.440, 664.350 936.511, 664.167 937.039 C 663.983 937.568, 663.247 938, 662.531 938 C 660.613 938, 649.354 950.394, 646.831 955.283 C 645.309 958.232, 644.522 961.920, 644.213 967.548 C 643.649 977.804, 646.070 984.079, 652.990 990.301 C 657.363 994.233, 665.851 998, 670.338 998 C 671.252 998, 672 998.520, 672 999.155 C 672 999.913, 672.602 999.808, 673.750 998.851 C 674.712 998.049, 677.075 997.264, 679 997.107 C 682.500 996.821, 689.664 993.416, 693.578 990.178 C 697.509 986.925, 701.999 979.746, 702.070 976.600 C 702.127 974.116, 702.291 973.886, 702.901 975.442 C 703.478 976.917, 704.062 975.787, 705.330 970.736 C 706.249 967.080, 707 963.024, 707 961.723 C 707 958.507, 704.029 950, 702.906 950 C 702.408 950, 702 949.419, 702 948.708 C 702 946.197, 695.217 940.273, 688.899 937.267 C 680.815 933.421, 676.893 932.879, 670 934.659 M 366.033 935.550 C 356.470 938.209, 348 944.739, 348 949.452 C 348 950.789, 347.592 952.134, 347.093 952.442 C 346.595 952.751, 346.413 951.990, 346.691 950.751 C 347.701 946.238, 343.028 954.279, 341.360 959.925 C 339.451 966.383, 339.951 976.976, 342.378 981.500 C 343.263 983.150, 343.990 984.971, 343.994 985.547 C 344.001 986.806, 350.502 993.043, 354 995.147 C 355.375 995.974, 358.577 997.221, 361.115 997.918 C 365.024 998.990, 366.697 998.937, 372.032 997.570 C 384.872 994.281, 395.158 986.085, 400.265 975.073 C 402.851 969.496, 403.174 967.858, 402.706 962.689 C 401.789 952.581, 392.870 938.802, 385.407 935.965 C 380.803 934.214, 371.547 934.016, 366.033 935.550 M 671.741 937.116 C 672.028 938.214, 672.972 938.974, 673.877 938.836 C 674.770 938.701, 676.548 939.167, 677.830 939.873 C 679.988 941.061, 680.135 940.986, 679.830 938.846 C 679.581 937.103, 678.787 936.482, 676.597 936.316 C 675 936.195, 673.138 935.883, 672.460 935.623 C 671.649 935.312, 671.403 935.823, 671.741 937.116 M 1491.037 938.174 C 1489.132 938.721, 1486.322 940.059, 1484.793 941.147 C 1483.265 942.236, 1481.592 942.866, 1481.076 942.547 C 1480.560 942.228, 1479.813 942.494, 1479.415 943.138 C 1478.963 943.869, 1479.124 944.041, 1479.845 943.595 C 1481.983 942.274, 1481.023 944.194, 1478.587 946.110 C 1477.260 947.154, 1475.242 949.934, 1474.103 952.287 C 1472.054 956.520, 1469.724 969, 1470.983 969 C 1471.341 969, 1472.389 971.394, 1473.312 974.321 C 1474.234 977.247, 1476.084 980.670, 1477.422 981.927 C 1478.761 983.184, 1479.737 984.728, 1479.592 985.356 C 1479.447 985.985, 1479.524 986.140, 1479.764 985.700 C 1480.004 985.261, 1481.378 985.673, 1482.818 986.617 C 1486.424 988.979, 1499.325 989.118, 1503.507 986.839 C 1507.298 984.772, 1517 975.139, 1517 973.440 C 1517 972.740, 1517.493 972.002, 1518.095 971.802 C 1519.914 971.195, 1519.522 957.116, 1517.543 952 C 1516.586 949.525, 1515.751 946.746, 1515.687 945.823 C 1515.623 944.901, 1515.181 944.388, 1514.704 944.683 C 1514.228 944.977, 1512.637 944.088, 1511.169 942.707 C 1508.322 940.029, 1500.377 936.941, 1496.715 937.090 C 1495.497 937.140, 1492.941 937.628, 1491.037 938.174 M 672.015 940.801 C 672.007 941.517, 670.538 942.713, 668.750 943.460 C 654.893 949.251, 648.063 969.458, 656.776 978.886 C 658.542 980.796, 658.766 981.556, 657.776 982.269 C 656.844 982.940, 656.944 983.048, 658.144 982.667 C 659.087 982.367, 660.700 983.116, 661.929 984.425 C 664.970 987.661, 671.213 989.293, 677.373 988.462 C 683.964 987.572, 685.689 986.657, 690.253 981.632 C 698.633 972.405, 700.661 960.915, 695.382 952.571 C 693.885 950.205, 691.759 947.706, 690.659 947.019 C 687.283 944.911, 675.756 941.033, 674.737 941.662 C 674.209 941.989, 673.384 941.636, 672.904 940.878 C 672.225 939.807, 672.027 939.790, 672.015 940.801 M 364.500 943.691 C 362.471 944.241, 357.326 947.559, 355.500 949.494 C 344.047 961.633, 345.908 980.522, 359.298 988.047 C 362.583 989.893, 364.304 990.175, 369.861 989.776 C 373.805 989.493, 378.179 988.442, 380.636 987.188 C 385.392 984.759, 391.234 977.907, 391.618 974.307 C 391.762 972.955, 392.305 971.321, 392.825 970.675 C 393.950 969.276, 392.732 959.236, 391.057 956.107 C 390.425 954.925, 390.177 953.523, 390.506 952.991 C 390.842 952.447, 390.424 952.284, 389.552 952.618 C 388.563 952.998, 388 952.655, 388 951.671 C 388 950.822, 386.200 949.116, 384 947.880 C 381.800 946.643, 380 945.340, 380 944.983 C 380 944.625, 379.438 944.319, 378.750 944.302 C 378.063 944.285, 375.025 944.018, 372 943.710 C 368.975 943.401, 365.600 943.393, 364.500 943.691 M 1697 947.261 C 1697 950.073, 1699.543 954.909, 1701.257 955.357 C 1702.978 955.807, 1755.981 955.097, 1762 954.543 C 1763.375 954.417, 1771.588 954.243, 1780.250 954.157 L 1796 954 1796 950.500 L 1796 947 1752.250 946.966 C 1728.188 946.948, 1705.912 946.759, 1702.750 946.548 C 1699.009 946.298, 1697 946.547, 1697 947.261 M 1492.185 950.014 C 1483.174 952.080, 1478.056 964.659, 1482.956 972.696 C 1488.594 981.942, 1500.170 981.592, 1507.022 971.970 C 1510.287 967.384, 1510.598 962.868, 1508.018 957.537 C 1504.975 951.250, 1499.057 948.439, 1492.185 950.014 M 668.999 953.250 C 659.632 959.644, 659.700 974.691, 669.119 979.561 C 677.782 984.042, 690.516 975.676, 690.355 965.609 C 690.169 953.909, 678.190 946.977, 668.999 953.250 M 364.395 953.901 C 354.744 959.786, 354.453 975.563, 363.906 980.451 C 369.857 983.529, 376.420 981.855, 381.342 976.005 C 385.950 970.530, 386.516 964.570, 383.046 958.086 C 380.028 952.446, 370.344 950.273, 364.395 953.901 M 1790.854 979.480 C 1790.590 979.743, 1771.855 979.987, 1749.220 980.022 C 1726.585 980.056, 1707.831 980.464, 1707.545 980.927 C 1707.258 981.391, 1707.536 983.240, 1708.162 985.036 L 1709.301 988.301 1746.785 987.621 C 1767.402 987.247, 1786.909 986.665, 1790.135 986.328 L 1796 985.715 1796 982.358 C 1796 979.507, 1795.648 979, 1793.667 979 C 1792.383 979, 1791.118 979.216, 1790.854 979.480 M 1466.946 994.565 C 1465.585 996.206, 1466.691 998.333, 1468.537 997.624 C 1469.270 997.343, 1470.039 997.617, 1470.244 998.233 C 1470.706 999.618, 1473.003 998.329, 1472.992 996.691 C 1472.988 996.036, 1471.877 994.987, 1470.524 994.359 C 1468.596 993.465, 1467.822 993.510, 1466.946 994.565" stroke="none" fill="#2f3c66" fill-rule="evenodd"/><path d="M 981.250 236.739 C 984.413 236.937, 989.587 236.937, 992.750 236.739 C 995.913 236.541, 993.325 236.378, 987 236.378 C 980.675 236.378, 978.087 236.541, 981.250 236.739 M 178.750 239.745 C 183.837 239.927, 192.162 239.927, 197.250 239.745 C 202.338 239.564, 198.175 239.415, 188 239.415 C 177.825 239.415, 173.662 239.564, 178.750 239.745 M 656.500 240.061 C 651.550 240.370, 665.912 240.707, 688.417 240.811 C 710.921 240.915, 729.118 240.785, 728.856 240.523 C 728.139 239.806, 666.860 239.415, 656.500 240.061 M 1150 240.047 C 1140.468 240.465, 1143.718 240.643, 1163.691 240.797 C 1178.096 240.909, 1190.090 240.662, 1190.345 240.250 C 1190.885 239.374, 1168.002 239.259, 1150 240.047 M 1200.287 239.740 C 1203.469 239.939, 1208.419 239.937, 1211.287 239.736 C 1214.154 239.535, 1211.550 239.372, 1205.500 239.374 C 1199.450 239.376, 1197.104 239.541, 1200.287 239.740 M 908.762 240.562 C 907.927 241.408, 750.003 243.420, 687.500 243.381 C 664.950 243.367, 620.625 243.005, 589 242.576 C 531.876 241.803, 480.483 242.760, 399.500 246.106 C 369.944 247.327, 293.715 246.592, 273.500 244.891 C 266.900 244.336, 232.865 243.669, 197.867 243.411 L 134.233 242.940 133.476 277.720 C 132.777 309.824, 133.007 328.298, 134.990 399.500 C 135.388 413.800, 135.455 452.725, 135.139 486 C 133.974 608.508, 134.940 784.414, 136.786 786.139 C 137.179 786.506, 154.825 787.412, 176 788.153 C 219.262 789.667, 431.831 790.008, 472.500 788.630 C 499.730 787.707, 643.984 787.610, 702 788.477 C 723.175 788.793, 774.700 789.485, 816.500 790.016 C 858.300 790.546, 912.075 791.272, 936 791.629 C 984.073 792.346, 1052.818 790.948, 1103.500 788.223 C 1135.144 786.521, 1154.946 786.299, 1228 786.828 C 1248.625 786.977, 1278.325 786.635, 1294 786.068 C 1309.675 785.501, 1330.111 785.029, 1339.413 785.019 L 1356.326 785 1355.479 737.250 C 1355.013 710.987, 1354.585 615.924, 1354.528 525.999 C 1354.472 436.073, 1354.110 361.986, 1353.724 361.362 C 1353.338 360.737, 1352.811 333.794, 1352.552 301.488 C 1352.294 269.182, 1351.898 242.565, 1351.672 242.338 C 1350.715 241.381, 1227.958 241.980, 1200.488 243.076 C 1182.745 243.784, 1161.517 243.988, 1148.500 243.577 C 1136.400 243.194, 1113 242.447, 1096.500 241.916 C 1057.382 240.658, 909.717 239.593, 908.762 240.562 M 326.750 243.746 C 332.387 243.924, 341.613 243.924, 347.250 243.746 C 352.887 243.568, 348.275 243.422, 337 243.422 C 325.725 243.422, 321.113 243.568, 326.750 243.746 M 378.250 243.739 C 381.413 243.937, 386.587 243.937, 389.750 243.739 C 392.913 243.541, 390.325 243.378, 384 243.378 C 377.675 243.378, 375.087 243.541, 378.250 243.739 M 1448.500 400.031 C 1432.874 401.326, 1422.408 403.772, 1413.645 408.179 C 1404.188 412.933, 1391.072 421.723, 1382.271 429.205 L 1376.041 434.500 1375.327 466 C 1374.378 507.885, 1374.978 746.257, 1376.036 747.383 C 1377.185 748.605, 1408.572 747.554, 1445 745.072 C 1485.413 742.318, 1519.507 741.528, 1534.611 742.994 C 1580.302 747.431, 1613.027 766.574, 1635.482 802 C 1649.670 824.383, 1666.746 859.901, 1676.398 887.104 L 1680.161 897.709 1689.830 898.382 C 1695.149 898.752, 1719.750 899.477, 1744.500 899.994 C 1769.250 900.511, 1797.150 901.404, 1806.500 901.980 C 1820.302 902.829, 1841.768 903.344, 1851.250 903.054 C 1852.867 903.004, 1853 901.168, 1853 878.964 L 1853 854.928 1844.250 855.532 C 1836.478 856.069, 1835.130 855.903, 1832.190 854.046 C 1826.958 850.743, 1826.311 847.791, 1825.515 823.599 L 1824.794 801.697 1829.658 802.273 C 1836.806 803.120, 1845.549 806.702, 1849.078 810.231 L 1852.171 813.325 1851.619 808.913 C 1851.315 806.486, 1850.796 800.900, 1850.465 796.500 C 1850.134 792.100, 1848.778 779.050, 1847.452 767.500 C 1846.125 755.950, 1844.126 734.800, 1843.009 720.500 C 1839.915 680.871, 1837.001 663.411, 1829.411 639 C 1824.230 622.336, 1824.902 623, 1813.227 622.998 C 1794.401 622.995, 1793.632 621.815, 1777.378 568 C 1775.302 561.125, 1768.054 539.075, 1761.271 519 C 1745.510 472.349, 1742 461.353, 1742 458.630 C 1742 457.416, 1742.881 454.694, 1743.958 452.581 L 1745.917 448.740 1741.462 442.951 C 1733.131 432.124, 1723.208 424.642, 1711.583 420.423 C 1701.283 416.684, 1658.406 409.541, 1631.500 407.081 C 1588.448 403.146, 1559.388 400.990, 1536.014 399.997 C 1509.668 398.879, 1462.186 398.897, 1448.500 400.031 M 1626 443.979 C 1606.475 444.379, 1582.063 445.069, 1571.750 445.512 L 1553 446.316 1553.023 487.908 C 1553.035 510.784, 1552.975 556.275, 1552.889 589 C 1552.803 621.725, 1552.905 665.150, 1553.116 685.500 L 1553.500 722.500 1561.500 723.271 C 1580.549 725.105, 1603.047 733.261, 1619.500 744.295 C 1628.707 750.470, 1641.275 761.407, 1650.682 771.430 C 1661.524 782.982, 1671.874 798.628, 1684.500 822.552 C 1699.466 850.909, 1703.678 854.368, 1724.883 855.714 C 1730.043 856.042, 1749.056 855.718, 1767.133 854.995 L 1800 853.680 1799.998 839.590 C 1799.997 831.840, 1799.572 813.800, 1799.053 799.500 C 1798.534 785.200, 1797.850 760.900, 1797.534 745.500 C 1796.383 689.502, 1793.819 668.714, 1783.029 627.909 C 1780.788 619.434, 1776.938 604.400, 1774.474 594.500 C 1768.595 570.877, 1767.113 565.513, 1759.416 540 C 1743.699 487.902, 1734.313 463.029, 1727.836 456.314 C 1723.868 452.200, 1712.676 446.661, 1705 445.013 C 1697.733 443.452, 1669.601 443.084, 1626 443.979 M 1586.588 447.652 C 1570.137 448.388, 1556.524 449.142, 1556.339 449.328 C 1555.910 449.757, 1555.496 640.230, 1555.825 685.750 L 1556.073 720 1559.287 720.016 C 1563.972 720.039, 1580.261 723.593, 1589.500 726.609 C 1606.873 732.281, 1627.569 744.756, 1641.636 758.036 C 1660.420 775.769, 1672.986 793.332, 1687.931 822.743 C 1696.728 840.057, 1701.700 846.504, 1708.808 849.817 C 1714.365 852.407, 1714.973 852.470, 1734.500 852.485 C 1749.305 852.496, 1794.149 851.474, 1797.846 851.041 C 1798.037 851.018, 1797.921 846.388, 1797.590 840.750 C 1797.258 835.112, 1796.547 812.500, 1796.009 790.500 C 1794.374 723.680, 1793.945 712.186, 1792.410 694.136 C 1790.738 674.479, 1787.652 656.705, 1782.489 637 C 1780.544 629.575, 1775.591 610.225, 1771.482 594 C 1756.182 533.572, 1734.179 467.142, 1726.896 459.390 C 1721.170 453.294, 1711.670 448.940, 1700 447.062 C 1691.136 445.636, 1623.827 445.986, 1586.588 447.652 M 1605 455.435 C 1581.208 456.698, 1578.724 457.383, 1575.372 463.607 C 1573.731 466.655, 1573.700 469.187, 1574.863 504.678 C 1576.405 551.737, 1578.580 589.727, 1580.042 595.157 C 1580.655 597.431, 1582.093 600.559, 1583.238 602.108 C 1586.906 607.070, 1590.019 607.826, 1609.523 608.496 C 1619.411 608.835, 1637.175 609.766, 1649 610.564 C 1670.365 612.005, 1728.929 617.543, 1729.448 618.172 C 1729.597 618.352, 1729.993 619.648, 1730.329 621.052 C 1730.856 623.259, 1730.516 623.732, 1727.804 624.552 C 1726.080 625.073, 1724.182 626.314, 1723.585 627.309 C 1721.621 630.583, 1725.244 632, 1735.580 632 C 1743.102 632, 1745.203 631.656, 1747.107 630.115 C 1749.109 628.494, 1749.246 628.002, 1748.088 626.606 C 1747.347 625.713, 1744.999 624.704, 1742.870 624.363 C 1739.419 623.811, 1739 623.434, 1739 620.872 L 1739 618 1747.984 618 C 1756.372 618, 1757.173 617.818, 1760.046 615.250 C 1764.607 611.175, 1764.790 606.923, 1761.043 592.130 C 1759.320 585.326, 1755.298 571.826, 1752.106 562.130 C 1740.099 525.660, 1738.777 521.339, 1737.390 514.012 C 1735.352 503.253, 1733.455 497.032, 1728.240 484 C 1718.761 460.310, 1714.575 457.182, 1689.500 455.044 C 1674.377 453.754, 1633.074 453.946, 1605 455.435 M 1588.413 651.039 C 1584.162 651.923, 1583.323 652.578, 1582.562 655.608 C 1582.103 657.438, 1582.448 658.846, 1583.701 660.248 C 1585.398 662.147, 1586.289 662.224, 1599.410 661.609 C 1607.060 661.250, 1614.443 660.404, 1615.817 659.728 C 1619.573 657.882, 1620.615 655.645, 1619.183 652.502 L 1617.974 649.849 1604.737 650.124 C 1597.457 650.274, 1590.111 650.687, 1588.413 651.039 M 1292 789.152 C 1281.825 789.520, 1253.250 789.826, 1228.500 789.832 L 1183.500 789.842 1183.217 826.171 C 1182.876 869.940, 1184.024 894.353, 1186.676 899.740 C 1190.237 906.972, 1190.508 907.021, 1230.669 907.658 C 1251.131 907.984, 1275.044 907.775, 1286.420 907.171 C 1305.866 906.140, 1306.401 906.054, 1308.920 903.528 L 1311.500 900.941 1311.500 844.878 C 1311.500 814.043, 1311.275 788.740, 1311 788.648 C 1310.725 788.557, 1302.175 788.783, 1292 789.152 M 646.955 792.045 C 626.499 794.862, 602.688 805.361, 579.709 821.696 C 569.752 828.775, 547.079 851.094, 540.737 860.059 C 533.456 870.351, 525.628 884.107, 523.516 890.321 C 522.455 893.444, 521.342 895.989, 521.043 895.975 C 520.744 895.961, 518.985 892.023, 517.133 887.225 C 508.182 864.036, 488.466 839.049, 464.531 820.564 C 453.818 812.290, 447.916 808.822, 435.722 803.637 C 412.690 793.843, 407.814 793.004, 370 792.325 C 335.366 791.703, 328.451 792.425, 310.049 798.582 C 266.463 813.165, 226.924 852.526, 209.676 898.500 C 207.135 905.273, 202.553 922.920, 203.188 923.488 C 204.013 924.227, 220.227 932.086, 220.362 931.813 C 220.447 931.641, 222.225 926.325, 224.312 920 C 229.051 905.645, 239.214 884.402, 246.751 873.101 C 253.728 862.640, 273.601 842.349, 284 835.067 C 297.355 825.716, 310.908 819.827, 326.558 816.575 C 345.553 812.628, 378.227 812.116, 394 815.519 C 423.314 821.843, 448.888 835.768, 470.068 856.938 C 490.173 877.032, 502.359 898.887, 509.969 928.500 C 512.008 936.435, 512.387 936.670, 523.500 936.873 L 529.500 936.983 532.716 924.962 C 536.472 910.922, 541.417 899.882, 549.316 887.900 C 570.466 855.820, 601.514 830.697, 634.312 819.122 C 662.752 809.086, 694.731 809.065, 722.372 819.067 C 770.144 836.353, 805.762 878.219, 821.642 935.750 L 824.472 946 828.986 945.986 C 838.531 945.957, 838.333 946.243, 837.552 933.602 C 835.129 894.378, 819.051 860.874, 787.684 829.679 C 769.424 811.520, 750.841 800.756, 726.859 794.449 C 716.789 791.800, 715.621 791.716, 685 791.434 C 667.675 791.274, 650.555 791.549, 646.955 792.045 M 1828.372 824.991 C 1829.051 845.229, 1829.561 848.560, 1832.327 850.856 C 1834.263 852.463, 1843.662 853.474, 1848.402 852.584 L 1852 851.909 1852 837.898 C 1852 830.191, 1851.490 821.861, 1850.867 819.387 C 1849.303 813.174, 1845.245 809.465, 1837.342 807.024 C 1826.797 803.767, 1827.605 802.149, 1828.372 824.991 M 183.763 822.500 C 181.708 825.250, 178.616 831.100, 176.892 835.500 C 170.386 852.104, 173.268 872.465, 183.682 883.480 L 186.500 886.460 187.252 868.980 C 187.665 859.366, 187.890 843.850, 187.752 834.500 L 187.500 817.500 183.763 822.500 M 1100.694 845.750 C 1100.461 846.163, 1100.608 863.600, 1101.021 884.500 C 1101.434 905.400, 1101.530 934.017, 1101.234 948.094 L 1100.696 973.687 1103.098 974.330 C 1104.419 974.683, 1108.200 974.978, 1111.500 974.984 L 1117.500 974.996 1117.740 909.998 L 1117.981 845 1109.549 845 C 1104.912 845, 1100.927 845.337, 1100.694 845.750 M 942.851 846.730 L 936.202 847.087 935.851 875.793 C 935.658 891.582, 935.656 920.362, 935.847 939.750 L 936.194 975 943.445 975 L 950.696 975 951.521 933.750 C 952.883 865.613, 952.770 846.542, 951 846.451 C 950.175 846.409, 946.508 846.534, 942.851 846.730 M 1834 882.369 L 1834 892 1837.750 891.986 C 1846.029 891.956, 1847.494 890.476, 1846.408 883.234 C 1845.556 877.554, 1842.532 874.097, 1837.750 873.335 L 1834 872.738 1834 882.369 M 1836.525 881.250 C 1836.621 884.138, 1836.766 886.837, 1836.849 887.250 C 1836.932 887.663, 1838.634 888, 1840.631 888 C 1844.242 888, 1844.259 887.981, 1843.677 884.394 C 1842.925 879.763, 1840.449 876, 1838.153 876 C 1836.625 876, 1836.378 876.796, 1836.525 881.250 M 1207.206 910.741 C 1210.895 910.932, 1217.195 910.934, 1221.206 910.743 C 1225.218 910.553, 1222.200 910.396, 1214.500 910.395 C 1206.800 910.393, 1203.518 910.549, 1207.206 910.741 M 1488.457 921.931 C 1488.774 922.443, 1488.506 923.187, 1487.862 923.585 C 1487.131 924.037, 1486.959 923.876, 1487.405 923.155 C 1488.307 921.695, 1486.024 921.659, 1482.315 923.075 C 1479.600 924.111, 1479.569 924.200, 1481.441 925.575 C 1482.509 926.359, 1482.901 927, 1482.314 927 C 1481.726 927, 1480.696 926.338, 1480.025 925.530 C 1478.960 924.247, 1478.293 924.320, 1474.803 926.101 C 1469.888 928.608, 1461.820 935.899, 1462.587 937.141 C 1462.896 937.641, 1462.778 937.926, 1462.324 937.775 C 1461.871 937.624, 1461.428 937.910, 1461.340 938.410 C 1461.251 938.911, 1460.464 939.721, 1459.590 940.210 C 1457.518 941.369, 1454.569 947, 1456.033 947 C 1456.630 947, 1456.835 947.457, 1456.490 948.016 C 1456.144 948.575, 1455.491 948.803, 1455.037 948.523 C 1454.583 948.242, 1453.474 949.858, 1452.572 952.113 C 1451.288 955.321, 1451.191 956.525, 1452.123 957.649 C 1453.047 958.762, 1453.042 959.356, 1452.098 960.292 C 1451.145 961.239, 1451.019 961.067, 1451.516 959.500 L 1452.151 957.500 1450.829 959.500 C 1448.587 962.892, 1449.137 975.545, 1451.836 982.654 C 1453.121 986.038, 1455.033 989.732, 1456.086 990.862 C 1457.139 991.992, 1458 993.353, 1458 993.886 C 1458 994.419, 1459.110 995.728, 1460.466 996.795 C 1461.822 997.862, 1462.610 999.117, 1462.216 999.584 C 1461.822 1000.052, 1462.298 999.823, 1463.273 999.076 C 1464.804 997.902, 1464.964 997.930, 1464.446 999.279 C 1464.029 1000.368, 1464.528 1000.941, 1466.095 1001.170 C 1467.332 1001.352, 1468.564 1002.175, 1468.834 1003 C 1469.271 1004.333, 1469.119 1004.333, 1467.471 1003 C 1466.451 1002.175, 1465.945 1002.048, 1466.346 1002.717 C 1467.434 1004.529, 1476.288 1008.737, 1477.889 1008.204 C 1478.653 1007.949, 1478.999 1008.193, 1478.657 1008.745 C 1477.502 1010.614, 1486.345 1012.182, 1495.077 1011.657 C 1505.727 1011.016, 1506.180 1010.922, 1505.070 1009.583 C 1504.468 1008.858, 1505.019 1008.449, 1506.739 1008.346 C 1508.589 1008.235, 1508.914 1008.441, 1507.903 1009.081 C 1505.735 1010.454, 1507.367 1010.163, 1511.486 1008.441 C 1513.538 1007.584, 1514.946 1006.613, 1514.617 1006.283 C 1513.847 1005.514, 1515.911 1003, 1517.314 1003 C 1517.901 1003, 1517.509 1003.661, 1516.441 1004.468 C 1515.374 1005.276, 1514.950 1005.936, 1515.500 1005.936 C 1517.167 1005.936, 1520.020 1003.354, 1519.234 1002.556 C 1518.831 1002.146, 1519.255 1001.965, 1520.177 1002.155 C 1522.184 1002.568, 1530.094 995.226, 1534.938 988.455 C 1536.829 985.812, 1537.843 983.979, 1537.191 984.382 C 1536.302 984.932, 1536.255 984.460, 1537.003 982.492 C 1538.253 979.206, 1538.252 978.726, 1537 979.500 C 1535.418 980.478, 1535.838 978.380, 1537.500 977 C 1538.325 976.315, 1539.061 974.573, 1539.136 973.128 C 1539.267 970.613, 1539.292 970.602, 1539.721 972.865 C 1539.968 974.166, 1539.681 975.719, 1539.085 976.315 C 1537.670 977.730, 1537.681 979.315, 1539.100 978.438 C 1539.840 977.981, 1539.814 978.479, 1539.019 979.965 C 1538.369 981.178, 1538.039 982.372, 1538.284 982.618 C 1538.674 983.007, 1541.432 977.339, 1541.504 976 C 1541.519 975.725, 1541.923 974.880, 1542.403 974.122 C 1544.438 970.910, 1543.868 954.117, 1541.828 957.169 C 1541.259 958.021, 1541.163 957.533, 1541.562 955.813 C 1542.467 951.908, 1537.090 942.438, 1530.175 935.759 C 1524.446 930.226, 1515.666 924.220, 1512.317 923.544 C 1511.318 923.343, 1509.233 922.688, 1507.685 922.089 C 1504.077 920.693, 1499.433 920.698, 1496.814 922.100 C 1495.319 922.899, 1494.944 922.899, 1495.438 922.100 C 1495.891 921.368, 1494.740 921, 1492 921 C 1489.713 921, 1488.138 921.414, 1488.457 921.931 M 666.220 923.449 C 663.316 924.152, 660.616 925.070, 660.220 925.488 C 659.824 925.906, 660.400 925.989, 661.500 925.672 C 662.600 925.355, 664.850 924.858, 666.500 924.569 C 668.783 924.169, 668.592 924.345, 665.701 925.306 C 663.611 926, 662.111 926.778, 662.367 927.034 C 662.624 927.290, 661.789 927.500, 660.512 927.500 C 659.236 927.500, 658.400 927.163, 658.655 926.750 C 659.485 925.406, 658.034 925.953, 653.980 928.513 C 651.791 929.894, 650 931.496, 650 932.072 C 650 932.647, 649.601 932.871, 649.113 932.570 C 648.626 932.269, 647.613 932.805, 646.863 933.761 C 645.630 935.335, 645.666 935.370, 647.250 934.128 C 648.293 933.310, 649 933.185, 649 933.819 C 649 934.403, 648.543 935.165, 647.984 935.510 C 647.425 935.856, 647.286 936.670, 647.676 937.319 C 648.065 937.969, 647.603 937.867, 646.650 937.092 C 644.714 935.521, 644.606 935.600, 640.146 941.875 C 638.436 944.281, 637.287 946.655, 637.593 947.150 C 637.898 947.645, 637.609 947.926, 636.949 947.775 C 636.290 947.624, 635.523 948.125, 635.245 948.889 C 634.936 949.740, 635.178 950.008, 635.870 949.580 C 636.492 949.196, 637 949.359, 637 949.941 C 637 950.523, 636.361 951, 635.580 951 C 634.094 951, 631.853 956.940, 630.175 965.329 C 629.133 970.538, 631.068 983.189, 633.006 983.835 C 633.560 984.020, 633.764 984.572, 633.461 985.063 C 632.208 987.091, 641.318 1000.539, 643.170 999.395 C 643.654 999.096, 643.926 999.397, 643.775 1000.063 C 643.624 1000.730, 645.445 1002.787, 647.823 1004.634 C 651.553 1007.532, 652.444 1007.833, 654.323 1006.833 C 656.186 1005.840, 656.327 1005.883, 655.301 1007.127 C 654.337 1008.296, 654.497 1008.829, 656.113 1009.839 C 657.231 1010.537, 659.098 1010.796, 660.313 1010.423 C 661.516 1010.054, 662.150 1010.120, 661.721 1010.571 C 660.749 1011.594, 669.231 1013.897, 674.191 1013.956 C 676.221 1013.980, 678.176 1013.524, 678.536 1012.941 C 678.910 1012.336, 680.542 1012.141, 682.345 1012.485 C 684.912 1012.975, 685.170 1012.881, 683.729 1011.982 C 681.884 1010.831, 682.244 1008.989, 684.309 1009.015 C 685.114 1009.026, 685.064 1009.307, 684.155 1009.883 C 683.157 1010.516, 683.458 1010.898, 685.326 1011.367 C 688.570 1012.181, 691.024 1011.225, 690.330 1009.417 C 690.031 1008.638, 690.284 1008, 690.893 1008 C 691.502 1008, 692 1008.440, 692 1008.979 C 692 1009.574, 692.979 1009.511, 694.500 1008.818 C 695.875 1008.192, 697 1007.301, 697 1006.839 C 697 1006.378, 697.640 1006, 698.423 1006 C 701.186 1006, 705.837 1001.116, 705.551 998.514 C 705.403 997.162, 705.699 996.314, 706.209 996.629 C 706.719 996.944, 706.895 997.832, 706.600 998.601 C 706.304 999.371, 706.409 1000, 706.831 1000 C 708.199 1000, 710 997.647, 710 995.859 C 710 994.901, 710.520 993.797, 711.155 993.405 C 711.934 992.923, 712.040 993.148, 711.483 994.095 C 711.028 994.868, 711.634 994.643, 712.828 993.595 C 715.132 991.574, 715.738 990.426, 713.900 991.562 C 713.127 992.039, 713.138 991.611, 713.935 990.121 C 714.560 988.954, 715.306 988, 715.594 988 C 715.882 988, 715.797 988.520, 715.405 989.155 C 714.958 989.876, 715.131 990.037, 715.865 989.584 C 716.960 988.906, 722 979.781, 722 978.474 C 722 978.148, 721.550 978.160, 721 978.500 C 719.817 979.231, 719.817 978.252, 721 975.500 L 721.859 973.500 722 975.500 L 722.141 977.500 723 975.500 C 723.473 974.400, 723.891 970.189, 723.930 966.143 C 723.988 959.996, 723.753 958.881, 722.500 959.362 C 721.611 959.703, 721 959.372, 721 958.550 C 721 957.788, 720.738 956.339, 720.418 955.332 C 719.886 953.656, 719.971 953.665, 721.418 955.441 C 722.288 956.509, 723 956.921, 723 956.358 C 723 955.794, 722.692 955.025, 722.315 954.648 C 721.938 954.271, 721.129 952.506, 720.517 950.726 C 719.904 948.945, 717.642 945.129, 715.489 942.245 C 712.486 938.223, 711.099 937.115, 709.537 937.491 C 708.417 937.761, 708.063 937.723, 708.750 937.407 C 710.946 936.399, 710.146 935.426, 703.250 930.721 C 691.350 922.602, 679.404 920.256, 666.220 923.449 M 362.045 924.092 C 351.914 926.078, 340.621 934.096, 333.605 944.284 C 331.548 947.270, 329.750 950.340, 329.609 951.107 C 329.469 951.873, 328.541 954.300, 327.548 956.500 C 325.277 961.532, 324.042 977.710, 326.022 976.487 C 326.891 975.949, 327.064 976.087, 326.555 976.910 C 326.141 977.581, 326.086 979.647, 326.434 981.501 C 326.919 984.086, 327.499 984.789, 328.919 984.516 C 330.347 984.241, 330.651 984.619, 330.247 986.164 C 329.845 987.699, 329.524 987.856, 328.877 986.835 C 328.411 986.101, 328.024 985.974, 328.015 986.554 C 327.969 989.749, 340.943 1006, 343.540 1006 C 344.208 1006, 345.293 1006.648, 345.951 1007.441 C 346.608 1008.233, 347.807 1008.628, 348.614 1008.318 C 349.514 1007.972, 349.969 1008.277, 349.791 1009.106 C 349.380 1011.015, 358.648 1014.120, 363 1013.531 C 365.586 1013.181, 366.108 1013.323, 365 1014.075 C 363.937 1014.796, 365.250 1014.943, 369.500 1014.578 C 372.800 1014.294, 376.512 1014.043, 377.750 1014.020 C 378.988 1013.997, 380 1013.743, 380 1013.457 C 380 1013.170, 378.988 1012.529, 377.750 1012.031 C 375.563 1011.152, 375.575 1011.125, 378.167 1011.063 C 379.633 1011.029, 381.027 1011.563, 381.264 1012.250 C 381.845 1013.933, 391.785 1009.128, 398.707 1003.818 C 402.872 1000.622, 403.672 999.562, 402.707 998.517 C 402.043 997.798, 401.050 997.460, 400.500 997.766 C 399.950 998.072, 400.575 997.142, 401.888 995.700 C 403.704 993.705, 404.692 993.300, 406.012 994.006 C 407.287 994.689, 408.221 994.413, 409.529 992.968 C 410.509 991.886, 410.903 990.993, 410.405 990.985 C 409.907 990.976, 410.175 990.533, 411 990 C 412.272 989.178, 412.225 989.028, 410.691 989.015 C 409.665 989.007, 409.168 988.538, 409.542 987.932 C 409.905 987.344, 410.825 987.103, 411.586 987.395 C 412.380 987.699, 413.426 986.982, 414.040 985.713 C 415.096 983.530, 415.087 983.528, 413.421 985.500 C 411.922 987.273, 411.803 987.292, 412.365 985.668 C 412.714 984.661, 413 983.648, 413 983.418 C 413 983.188, 413.603 983, 414.339 983 C 415.706 983, 418.057 978.877, 417.930 976.703 C 417.891 976.041, 417.473 976.400, 417 977.500 C 416.339 979.039, 416.124 979.125, 416.070 977.872 C 416.032 976.977, 416.675 975.685, 417.500 975 C 419.177 973.609, 419.535 961.072, 418 957.500 C 417.421 956.153, 417.113 955.990, 417.055 957 C 416.979 958.333, 416.862 958.333, 416 957 C 414.714 955.011, 414.741 953.722, 416.051 954.532 C 417.752 955.583, 414.342 948.304, 410.866 943.463 C 409.103 941.008, 407.232 939, 406.708 939 C 406.184 939, 406.256 939.604, 406.869 940.342 C 407.481 941.080, 407.649 942.052, 407.241 942.502 C 406.834 942.952, 407.031 943.016, 407.681 942.644 C 408.330 942.272, 409.086 942.331, 409.361 942.775 C 409.635 943.219, 408.578 943.565, 407.012 943.544 C 404.759 943.514, 404.395 943.229, 405.268 942.177 C 406.084 941.194, 406.033 940.638, 405.073 940.045 C 404.015 939.391, 404.013 939.162, 405.064 938.812 C 407.039 938.154, 405.446 936.377, 398.885 931.922 C 390.879 926.485, 386.225 924.568, 384.502 925.999 C 383.677 926.683, 382.954 926.734, 382.583 926.134 C 382.255 925.604, 382.553 924.943, 383.244 924.664 C 384.094 924.322, 384.015 924.155, 383 924.149 C 382.175 924.144, 380.600 924.527, 379.500 925 C 377.870 925.701, 377.812 925.872, 379.191 925.930 C 380.121 925.968, 381.149 926.432, 381.475 926.960 C 381.808 927.499, 380.640 927.422, 378.811 926.784 C 377.020 926.160, 376.107 925.464, 376.783 925.239 C 377.459 925.014, 377.758 924.418, 377.447 923.915 C 376.759 922.800, 368.129 922.900, 362.045 924.092 M 1486.845 929.485 C 1482.021 931.260, 1478.956 933.224, 1471.452 939.350 C 1468.011 942.159, 1463.572 950.555, 1462.060 957.115 C 1460.533 963.736, 1460.776 975.220, 1462.532 979.422 C 1463.374 981.438, 1463.755 983.588, 1463.377 984.199 C 1463 984.809, 1463.098 985.068, 1463.595 984.774 C 1464.093 984.479, 1465.850 985.962, 1467.500 988.069 C 1469.150 990.176, 1471.963 992.618, 1473.750 993.497 C 1475.537 994.375, 1477 995.549, 1477 996.106 C 1477 996.663, 1477.412 996.864, 1477.915 996.553 C 1478.418 996.242, 1478.980 996.416, 1479.165 996.940 C 1479.655 998.333, 1492.542 1000.165, 1497.084 999.487 C 1503.012 998.603, 1507.338 996.474, 1513.704 991.307 C 1520.990 985.393, 1521.058 985.320, 1523.657 980.500 C 1530.115 968.526, 1529.396 954.551, 1521.777 943.934 C 1512.453 930.942, 1498.536 925.185, 1486.845 929.485 M 369 930.991 C 365.975 931.393, 361.925 932.401, 360 933.233 C 353.979 935.833, 346.446 942.147, 342.904 947.561 C 341.032 950.422, 339.093 952.522, 338.595 952.227 C 338.098 951.932, 338.001 952.192, 338.379 952.805 C 338.758 953.417, 338.315 956.218, 337.396 959.029 C 336.161 962.803, 335.863 966.173, 336.256 971.909 C 336.939 981.875, 340.255 989.095, 347.004 995.311 C 349.752 997.843, 352 999.731, 352 999.508 C 352 999.285, 353.537 999.744, 355.417 1000.530 C 366.546 1005.180, 381.896 1001.185, 393.500 990.619 C 396.250 988.116, 398.837 986.052, 399.250 986.033 C 399.663 986.015, 400 985.507, 400 984.904 C 400 984.302, 400.804 982.614, 401.786 981.154 C 408.219 971.597, 408.068 955.023, 401.471 946.373 C 400.112 944.591, 399 942.700, 399 942.170 C 399 941.641, 397.458 939.853, 395.572 938.198 C 393.687 936.543, 392.337 934.996, 392.572 934.761 C 392.808 934.526, 392.438 934.283, 391.750 934.222 C 391.063 934.161, 388.025 933.200, 385 932.088 C 379.161 929.941, 377.687 929.840, 369 930.991 M 665.187 932.146 C 658.853 934.579, 648.021 944.272, 645.498 949.765 C 644.554 951.819, 643.098 954.850, 642.263 956.500 C 639.811 961.342, 639.413 974.866, 641.551 980.652 C 646.586 994.274, 660.097 1002.836, 674.884 1001.774 C 694.184 1000.388, 710.015 982.860, 710.353 962.500 C 710.512 952.908, 706.958 945.224, 699.551 939.147 C 688.812 930.336, 676.451 927.818, 665.187 932.146 M 1485.904 934.250 C 1479.781 937.357, 1471.849 944.164, 1472.469 945.780 C 1472.748 946.508, 1472.583 946.860, 1472.102 946.563 C 1470.756 945.731, 1469.178 948.171, 1467.040 954.384 C 1464.522 961.703, 1464.675 975.839, 1467.325 980.783 C 1468.352 982.697, 1469.549 983.779, 1470.197 983.378 C 1470.873 982.960, 1471.028 983.146, 1470.591 983.853 C 1469.302 985.938, 1476.769 991.760, 1483.684 994.061 C 1488.614 995.702, 1491.407 996.071, 1495.142 995.576 C 1500.838 994.820, 1505.171 993.086, 1504.417 991.865 C 1504.130 991.402, 1504.552 991.275, 1505.353 991.582 C 1506.263 991.931, 1509.446 989.580, 1513.830 985.321 C 1519.861 979.460, 1521.091 977.659, 1522.561 972.525 C 1524.841 964.565, 1524.719 960.271, 1522.006 953.016 C 1517.698 941.497, 1505.102 932, 1494.132 932 C 1492.046 932, 1488.343 933.013, 1485.904 934.250 M 670 934.659 C 666.975 935.440, 664.350 936.511, 664.167 937.039 C 663.983 937.568, 663.247 938, 662.531 938 C 660.613 938, 649.354 950.394, 646.831 955.283 C 645.309 958.232, 644.522 961.920, 644.213 967.548 C 643.649 977.804, 646.070 984.079, 652.990 990.301 C 657.363 994.233, 665.851 998, 670.338 998 C 671.252 998, 672 998.520, 672 999.155 C 672 999.913, 672.602 999.808, 673.750 998.851 C 674.712 998.049, 677.075 997.264, 679 997.107 C 682.500 996.821, 689.664 993.416, 693.578 990.178 C 697.509 986.925, 701.999 979.746, 702.070 976.600 C 702.127 974.116, 702.291 973.886, 702.901 975.442 C 703.478 976.917, 704.062 975.787, 705.330 970.736 C 706.249 967.080, 707 963.024, 707 961.723 C 707 958.507, 704.029 950, 702.906 950 C 702.408 950, 702 949.419, 702 948.708 C 702 946.197, 695.217 940.273, 688.899 937.267 C 680.815 933.421, 676.893 932.879, 670 934.659 M 366.033 935.550 C 356.470 938.209, 348 944.739, 348 949.452 C 348 950.789, 347.592 952.134, 347.093 952.442 C 346.595 952.751, 346.413 951.990, 346.691 950.751 C 347.701 946.238, 343.028 954.279, 341.360 959.925 C 339.451 966.383, 339.951 976.976, 342.378 981.500 C 343.263 983.150, 343.990 984.971, 343.994 985.547 C 344.001 986.806, 350.502 993.043, 354 995.147 C 355.375 995.974, 358.577 997.221, 361.115 997.918 C 365.024 998.990, 366.697 998.937, 372.032 997.570 C 384.872 994.281, 395.158 986.085, 400.265 975.073 C 402.851 969.496, 403.174 967.858, 402.706 962.689 C 401.789 952.581, 392.870 938.802, 385.407 935.965 C 380.803 934.214, 371.547 934.016, 366.033 935.550 M 671.741 937.116 C 672.028 938.214, 672.972 938.974, 673.877 938.836 C 674.770 938.701, 676.548 939.167, 677.830 939.873 C 679.988 941.061, 680.135 940.986, 679.830 938.846 C 679.581 937.103, 678.787 936.482, 676.597 936.316 C 675 936.195, 673.138 935.883, 672.460 935.623 C 671.649 935.312, 671.403 935.823, 671.741 937.116 M 1491.037 938.174 C 1489.132 938.721, 1486.322 940.059, 1484.793 941.147 C 1483.265 942.236, 1481.592 942.866, 1481.076 942.547 C 1480.560 942.228, 1479.813 942.494, 1479.415 943.138 C 1478.963 943.869, 1479.124 944.041, 1479.845 943.595 C 1481.983 942.274, 1481.023 944.194, 1478.587 946.110 C 1477.260 947.154, 1475.242 949.934, 1474.103 952.287 C 1472.054 956.520, 1469.724 969, 1470.983 969 C 1471.341 969, 1472.389 971.394, 1473.312 974.321 C 1474.234 977.247, 1476.084 980.670, 1477.422 981.927 C 1478.761 983.184, 1479.737 984.728, 1479.592 985.356 C 1479.447 985.985, 1479.524 986.140, 1479.764 985.700 C 1480.004 985.261, 1481.378 985.673, 1482.818 986.617 C 1486.424 988.979, 1499.325 989.118, 1503.507 986.839 C 1507.298 984.772, 1517 975.139, 1517 973.440 C 1517 972.740, 1517.493 972.002, 1518.095 971.802 C 1519.914 971.195, 1519.522 957.116, 1517.543 952 C 1516.586 949.525, 1515.751 946.746, 1515.687 945.823 C 1515.623 944.901, 1515.181 944.388, 1514.704 944.683 C 1514.228 944.977, 1512.637 944.088, 1511.169 942.707 C 1508.322 940.029, 1500.377 936.941, 1496.715 937.090 C 1495.497 937.140, 1492.941 937.628, 1491.037 938.174 M 672.015 940.801 C 672.007 941.517, 670.538 942.713, 668.750 943.460 C 654.893 949.251, 648.063 969.458, 656.776 978.886 C 658.542 980.796, 658.766 981.556, 657.776 982.269 C 656.844 982.940, 656.944 983.048, 658.144 982.667 C 659.087 982.367, 660.700 983.116, 661.929 984.425 C 664.970 987.661, 671.213 989.293, 677.373 988.462 C 683.964 987.572, 685.689 986.657, 690.253 981.632 C 698.633 972.405, 700.661 960.915, 695.382 952.571 C 693.885 950.205, 691.759 947.706, 690.659 947.019 C 687.283 944.911, 675.756 941.033, 674.737 941.662 C 674.209 941.989, 673.384 941.636, 672.904 940.878 C 672.225 939.807, 672.027 939.790, 672.015 940.801 M 364.500 943.691 C 362.471 944.241, 357.326 947.559, 355.500 949.494 C 344.047 961.633, 345.908 980.522, 359.298 988.047 C 362.583 989.893, 364.304 990.175, 369.861 989.776 C 373.805 989.493, 378.179 988.442, 380.636 987.188 C 385.392 984.759, 391.234 977.907, 391.618 974.307 C 391.762 972.955, 392.305 971.321, 392.825 970.675 C 393.950 969.276, 392.732 959.236, 391.057 956.107 C 390.425 954.925, 390.177 953.523, 390.506 952.991 C 390.842 952.447, 390.424 952.284, 389.552 952.618 C 388.563 952.998, 388 952.655, 388 951.671 C 388 950.822, 386.200 949.116, 384 947.880 C 381.800 946.643, 380 945.340, 380 944.983 C 380 944.625, 379.438 944.319, 378.750 944.302 C 378.063 944.285, 375.025 944.018, 372 943.710 C 368.975 943.401, 365.600 943.393, 364.500 943.691 M 1697 947.261 C 1697 950.073, 1699.543 954.909, 1701.257 955.357 C 1702.978 955.807, 1755.981 955.097, 1762 954.543 C 1763.375 954.417, 1771.588 954.243, 1780.250 954.157 L 1796 954 1796 950.500 L 1796 947 1752.250 946.966 C 1728.188 946.948, 1705.912 946.759, 1702.750 946.548 C 1699.009 946.298, 1697 946.547, 1697 947.261 M 1492.185 950.014 C 1483.174 952.080, 1478.056 964.659, 1482.956 972.696 C 1488.594 981.942, 1500.170 981.592, 1507.022 971.970 C 1510.287 967.384, 1510.598 962.868, 1508.018 957.537 C 1504.975 951.250, 1499.057 948.439, 1492.185 950.014 M 668.999 953.250 C 659.632 959.644, 659.700 974.691, 669.119 979.561 C 677.782 984.042, 690.516 975.676, 690.355 965.609 C 690.169 953.909, 678.190 946.977, 668.999 953.250 M 364.395 953.901 C 354.744 959.786, 354.453 975.563, 363.906 980.451 C 369.857 983.529, 376.420 981.855, 381.342 976.005 C 385.950 970.530, 386.516 964.570, 383.046 958.086 C 380.028 952.446, 370.344 950.273, 364.395 953.901 M 1790.854 979.480 C 1790.590 979.743, 1771.855 979.987, 1749.220 980.022 C 1726.585 980.056, 1707.831 980.464, 1707.545 980.927 C 1707.258 981.391, 1707.536 983.240, 1708.162 985.036 L 1709.301 988.301 1746.785 987.621 C 1767.402 987.247, 1786.909 986.665, 1790.135 986.328 L 1796 985.715 1796 982.358 C 1796 979.507, 1795.648 979, 1793.667 979 C 1792.383 979, 1791.118 979.216, 1790.854 979.480 M 1466.946 994.565 C 1465.585 996.206, 1466.691 998.333, 1468.537 997.624 C 1469.270 997.343, 1470.039 997.617, 1470.244 998.233 C 1470.706 999.618, 1473.003 998.329, 1472.992 996.691 C 1472.988 996.036, 1471.877 994.987, 1470.524 994.359 C 1468.596 993.465, 1467.822 993.510, 1466.946 994.565" stroke="none" fill="#f26d4d" fill-rule="evenodd"/></svg>